<svg xmlns="http://www.w3.org/2000/svg" viewBox="0 0 24 24" fill="#d4691e" width="30" height="30">
  <path d="M12 0C8.74 0 8.333.015 7.053.072 5.775.132 4.905.333 4.117.63c-.794.297-1.473.645-2.148 1.32-.676.675-1.023 1.353-1.32 2.148-.297.788-.5 1.657-.56 2.935C.015 8.333 0 8.74 0 12s.015 3.667.072 4.947c.06 1.277.263 2.148.56 2.935.297.791.644 1.469 1.32 2.145.675.675 1.353 1.023 2.147 1.32.788.296 1.657.499 2.935.559C8.333 23.988 8.74 24 12 24s3.667-.015 4.947-.072c1.277-.06 2.148-.264 2.935-.56.792-.296 1.471-.644 2.147-1.32.676-.676 1.022-1.354 1.319-2.147.297-.789.499-1.658.559-2.936.059-1.28.073-1.687.073-4.947s-.015-3.667-.072-4.947c-.06-1.279-.263-2.148-.559-2.936-.298-.791-.644-1.469-1.32-2.146-.674-.675-1.353-1.023-2.146-1.32-.789-.296-1.658-.499-2.936-.559C15.667.015 15.26 0 12 0zm0 2.16c3.203 0 3.585.009 4.849.070 1.171.054 1.805.244 2.227.408.562.217.96.477 1.382.896.419.42.679.819.896 1.381.164.422.354 1.057.408 2.227.061 1.264.07 1.646.07 4.849s-.009 3.585-.07 4.849c-.054 1.171-.244 1.805-.408 2.227-.217.562-.477.96-.896 1.382-.42.419-.819.679-1.381.896-.422.164-1.057.354-2.227.408-1.264.061-1.646.07-4.849.07s-3.585-.009-4.849-.07c-1.171-.054-1.805-.244-2.227-.408-.562-.217-.96-.477-1.382-.896-.419-.42-.679-.819-.896-1.381-.164-.422-.354-1.057-.408-2.227-.061-1.264-.07-1.646-.07-4.849s.009-3.585.07-4.849c.054-1.171.244-1.805.408-2.227.217-.562.477-.96.896-1.382.42-.419.819-.679 1.381-.896.422-.164 1.057-.354 2.227-.408 1.264-.061 1.646-.07 4.849-.07l-.003-.002z"/>
  <path d="M12 5.838a6.162 6.162 0 100 12.324 6.162 6.162 0 000-12.324zM12 16a4 4 0 110-8 4 4 0 010 8zm4.965-10.322a1.44 1.44 0 110-2.88 1.44 1.44 0 010 2.88z"/>
</svg>